<svg xmlns="http://www.w3.org/2000/svg" width="1200" height="630" viewBox="0 0 1200 630">
  <defs>
    <radialGradient id="bg" cx="60%" cy="50%" r="70%">
      <stop offset="0" stop-color="#102b34"/>
      <stop offset="0.58" stop-color="#071017"/>
      <stop offset="1" stop-color="#05090d"/>
    </radialGradient>
    <filter id="glow"><feGaussianBlur stdDeviation="10"/></filter>
    <pattern id="grid" width="54" height="54" patternUnits="userSpaceOnUse"><path d="M54 0H0V54" fill="none" stroke="#60e6da" stroke-opacity=".07"/></pattern>
  </defs>
  <rect width="1200" height="630" fill="url(#bg)"/>
  <rect width="1200" height="630" fill="url(#grid)"/>
  <circle cx="878" cy="315" r="218" fill="none" stroke="#60e6da" stroke-opacity=".16" stroke-width="18" filter="url(#glow)"/>
  <circle cx="878" cy="315" r="205" fill="#0a1c24" stroke="#60e6da" stroke-opacity=".55" stroke-width="2"/>
  <ellipse cx="878" cy="315" rx="205" ry="72" fill="none" stroke="#60e6da" stroke-opacity=".45"/>
  <ellipse cx="878" cy="315" rx="205" ry="72" fill="none" stroke="#60e6da" stroke-opacity=".28" transform="rotate(60 878 315)"/>
  <ellipse cx="878" cy="315" rx="205" ry="72" fill="none" stroke="#60e6da" stroke-opacity=".28" transform="rotate(120 878 315)"/>
  <path d="M760 246l49-55 71-18 56 29 72 2 55 47-31 29-82-8-38 32-83-9-35 35-51-29zM790 357l49-21 69 18 25 55-43 56-62-14-39-45z" fill="#173b46" stroke="#60e6da" stroke-opacity=".55"/>
  <circle cx="970" cy="230" r="8" fill="#ff455d"/><circle cx="970" cy="230" r="18" fill="none" stroke="#ff455d" stroke-opacity=".45"/>
  <circle cx="786" cy="371" r="7" fill="#ff9e44"/><circle cx="786" cy="371" r="16" fill="none" stroke="#ff9e44" stroke-opacity=".4"/>
  <g transform="translate(70 76)">
    <circle cx="28" cy="28" r="26" fill="none" stroke="#c7ff4a" stroke-width="2"/>
    <ellipse cx="28" cy="28" rx="20" ry="7" fill="none" stroke="#c7ff4a"/>
    <ellipse cx="28" cy="28" rx="20" ry="7" fill="none" stroke="#c7ff4a" transform="rotate(90 28 28)"/>
    <circle cx="28" cy="28" r="4" fill="#c7ff4a"/>
  </g>
  <text x="70" y="210" fill="#e8f1ef" font-family="Arial,Helvetica,sans-serif" font-size="68" font-weight="300" letter-spacing="-3">SEU MUNDO</text>
  <text x="70" y="282" fill="#c7ff4a" font-family="Arial,Helvetica,sans-serif" font-size="68" font-weight="300" letter-spacing="-3">NESTE MOMENTO</text>
  <text x="73" y="348" fill="#60e6da" font-family="monospace" font-size="16" font-weight="700" letter-spacing="4">INFORMAÇÃO GLOBAL · FONTE · CONTEXTO</text>
  <text x="73" y="412" fill="#92a4a9" font-family="Arial,Helvetica,sans-serif" font-size="24">Acontecimentos e condições do planeta</text>
  <text x="73" y="445" fill="#92a4a9" font-family="Arial,Helvetica,sans-serif" font-size="24">reunidos em uma leitura pública.</text>
  <line x1="70" y1="525" x2="1130" y2="525" stroke="#60e6da" stroke-opacity=".22"/>
  <circle cx="78" cy="566" r="5" fill="#60e6da"/>
  <text x="96" y="572" fill="#73868c" font-family="monospace" font-size="14" letter-spacing="2">VDMTX · DADOS PÚBLICOS · TEMPO QUASE REAL</text>
</svg>
